<svg xmlns="http://www.w3.org/2000/svg" 
    xmlns:xlink="http://www.w3.org/1999/xlink">
    <defs>
        <svg xmlns="http://www.w3.org/2000/svg" viewBox="0 0 512 512" id="blog">
            <path d="M67 48a10 10 0 1 0 0 20 10 10 0 1 0 0-20zm0 0M117 48a10 10 0 1 0 0 20 10 10 0 1 0 0-20zm0 0M166 48a10 10 0 1 0 0 20 10 10 0 1 0 0-20zm0 0M444 48H251a10 10 0 1 0 0 20h193a10 10 0 0 0 0-20zm0 0M263 452c-3 0-5 2-7 3-2 2-3 5-3 7s1 6 3 8l7 2 7-2c2-2 3-5 3-8s-1-5-3-7c-2-1-4-3-7-3zm0 0"/>
            <path d="M480 1H32C14 1 0 15 0 32v409c0 17 14 31 32 31h189a10 10 0 1 0 0-20H32c-7 0-12-5-12-11V116h472v325c0 6-5 11-12 11H304a10 10 0 1 0 0 20h176c18 0 32-14 32-31V32c0-17-14-32-32-32zM20 96V32c0-6 5-11 12-11h448c7 0 12 5 12 11v64H20zm0 0"/>
            <path d="M178 231c0-20-16-36-36-36h-34c-5 0-10 4-10 10v104c0 5 5 10 10 10h34a36 36 0 0 0 25-62c7-7 11-16 11-26zm-20 52c0 8-7 16-16 16h-24v-32h24c9 0 16 7 16 16zm-40-36v-32h24a16 16 0 0 1 0 32zm0 0M207 195c-6 0-10 4-10 10v80c0 19 15 33 33 33a10 10 0 1 0 0-19c-7 0-13-6-13-14v-81c0-5-5-10-10-10zm0 0M325 282a36 36 0 1 0-73 0 36 36 0 0 0 73 0zm-53 0a16 16 0 1 1 33 0 16 16 0 0 1-33 0zm0 0M377 347c-9 0-16-8-16-17a10 10 0 1 0-20 0 36 36 0 0 0 73 0v-48a36 36 0 1 0-20 33v15c0 9-8 17-17 17zm0-48a16 16 0 1 1 0-33 16 16 0 0 1 0 33zm0 0M108 417h296a10 10 0 1 0 0-20H108a10 10 0 0 0 0 20zm0 0"/>
        </svg>
        <svg xmlns="http://www.w3.org/2000/svg" viewBox="0 0 500 300" id="email">
            <path d="M495 0H17C8 0 0 8 0 17v277c0 10 8 17 17 17h478c9 0 17-7 17-17V17c0-9-8-17-17-17zM30 43l144 95L30 263zm226 114L65 30h382zm-57-1l47 31a17 17 0 0 0 20 0l47-31 144 125H55zm139-18l144-95v220zm0 0"/>
        </svg>
        <svg xmlns="http://www.w3.org/2000/svg" viewBox="0 0 512 512" id="github">
            <path d="M256 0a256 256 0 1 0 0 512 256 256 0 0 0 0-512zm152 408a214 214 0 0 1-88 53v-38c0-20-7-35-21-44l24-4 23-6a97 97 0 0 0 40-26c6-6 11-13 15-21s7-18 10-29 3-23 3-36c0-26-8-48-25-66 8-20 7-42-3-65l-6-1c-4-1-12 1-23 5s-24 11-38 21a230 230 0 0 0-123 0 214 214 0 0 0-45-23 65 65 0 0 0-21-3l-2 1c-9 23-10 45-3 65a94 94 0 0 0-25 66c0 13 1 25 4 36s5 21 9 29a88 88 0 0 0 33 36l22 11 23 6 24 4c-14 9-20 24-20 44v39A214 214 0 0 1 41 256 214 214 0 0 1 256 41a214 214 0 0 1 215 215 214 214 0 0 1-63 152z"/>
        </svg>
        <svg xmlns="http://www.w3.org/2000/svg" viewBox="0 0 550 750" id="company">
            <path d="M462 450c8 5 12 11 12 21v93c0 6-2 12-5 16s-9 7-14 7H154c-5 0-10-2-13-7-4-4-6-10-6-16v-93c0-10 4-16 12-21l85-39 33-15c-16-9-27-23-36-40a109 109 0 0 1-7-79c6-21 16-38 31-52s32-20 52-20 37 7 52 21a105 105 0 0 1 34 80c0 16-3 32-10 47-8 19-20 32-35 42l35 16 81 39zm-327-25c-9 4-16 10-21 18-5 9-8 18-8 28v79H43c-4 0-8-2-11-5-2-3-4-8-4-13v-75c0-9 3-14 10-17l95-44c-12-7-21-17-28-30s-10-27-10-43a91 91 0 0 1 20-57c7-8 14-14 22-18a59 59 0 0 1 46-3l17 8a141 141 0 0 0 12 130c-4 5-9 9-14 12l-63 30zm438 15c7 3 10 9 10 17v75c0 5-1 10-4 13s-7 5-11 5h-65v-79c0-10-2-19-8-28-5-8-12-14-20-18l-61-29c-5-3-11-8-16-14a135 135 0 0 0 22-76l-3-27-7-25a60 60 0 0 1 64-6 84 84 0 0 1 37 43 91 91 0 0 1-31 104l93 45z"/>
        </svg>
        <svg xmlns="http://www.w3.org/2000/svg" viewBox="0 0 24 32" id="location">
            <path d="M12 9a3 3 0 1 0 0 6 3 3 0 0 0 0-6zm0 8a5 5 0 1 1 0-10 5 5 0 0 1 0 10zm0-17C5 0 0 5 0 12c0 5 10 20 12 20s12-15 12-20c0-7-5-12-12-12z"/>
        </svg>
        <svg xmlns="http://www.w3.org/2000/svg" viewBox="0 0 32 32" id="weibo">
            <path d="M37 13a1 1 0 0 1-3-1 7 7 0 0 0-8-9 1 1 0 0 1-1-3 10 10 0 0 1 12 13zM27 8a1 1 0 1 1-1-3 5 5 0 0 1 6 6 1 1 0 0 1-3 0 2 2 0 0 0-2-3zm0 2v3l1 1c2 1 4 3 4 5 0 5-6 11-16 11-8 0-16-4-16-10 0-3 2-7 6-10 4-5 10-7 12-5v4l1 1c4-2 7-2 8 0zm-1 9c0-4-6-6-12-6-6 1-11 5-10 9 0 4 5 6 12 6 6-1 10-5 10-9zm-14 7c-3-1-5-4-3-6 1-3 4-4 7-4 3 1 5 4 3 7-1 3-4 4-7 3zm1-5h-3l1 3 3-1c1-1 0-2-1-2zm3-1h-1v1l1-1z"/>
        </svg>
        <svg xmlns="http://www.w3.org/2000/svg" viewBox="0 0 32 32" id="twitter">
            <path d="M32 6l-4 1c2-1 3-2 3-4l-4 2-5-2c-3 0-6 3-6 7v1C10 11 6 8 2 4L1 8c0 2 2 4 3 5l-3-1c0 3 3 6 6 7H4c0 2 3 4 6 4-3 2-5 3-8 3H0a19 19 0 0 0 29-16l3-4z"/>
        </svg>
        <svg xmlns="http://www.w3.org/2000/svg" viewBox="0 0 32 32" id="linkedin">
            <path d="M16 0C7 0 0 7 0 16s7 16 16 16 16-7 16-16S25 0 16 0zm-4 24H8V13h4v11zm-2-12l-2-2 2-2 2 2-2 2zm14 12h-3v-5c0-1 0-3-2-3s-2 1-2 3v5h-3V13h3v2c0-1 1-2 3-2 3 0 4 2 4 5v6z"/>
        </svg>
        <svg xmlns="http://www.w3.org/2000/svg" viewBox="0 0 37 29" id="wechat">
            <path d="M32 26l1 3-3-2-4 1c-6 0-11-4-11-9S20 9 26 9s11 5 11 10c0 2-2 5-5 7zM22 15l-1 1 1 1 2-1-2-1zm7 0l-1 1 1 1 2-1-2-1zm-15 4v2H9l-5 2 1-4c-3-2-5-5-5-8C0 5 6 0 13 0s12 4 13 9h-1c-6 0-11 4-11 10zM9 5L7 7l2 2 1-2-1-2zm9 0l-2 2 2 2 2-2-2-2z"/>
        </svg>
    </defs>
</svg>